<svg aria-hidden="true" style="position: absolute; width: 0; height: 0; overflow: hidden;" version="1.1" xmlns="http://www.w3.org/2000/svg" xmlns:xlink="http://www.w3.org/1999/xlink">
<defs>
<symbol id="icon-cart" viewBox="0 0 33 32">
<title>cart</title>
<path d="M22.398 28.8c0.001-1.768 1.433-3.2 3.201-3.201h0c1.768 0.001 3.2 1.433 3.201 3.201v0c-0.001 1.768-1.433 3.2-3.201 3.201h-0c-1.768-0.001-3.2-1.433-3.201-3.201v-0zM6.399 28.8c0.001-1.768 1.433-3.2 3.201-3.201h0c1.768 0.001 3.2 1.433 3.201 3.201v0c-0.001 1.768-1.434 3.2-3.201 3.201h-0c-1.768-0.001-3.2-1.433-3.201-3.201v-0zM7.961 22.4l-2.898-11.664-1.874-7.532h-1.818c-0 0-0.001 0-0.002 0-0.756 0-1.369-0.613-1.369-1.369 0 0 0 0 0 0v0-0.934c0-0 0-0.001 0-0.001 0-0.494 0.401-0.895 0.895-0.895h4.337l1.592 6.401h26.38l-6.001 16.001zM7.252 7.999l1.106 4.579 2.041 8.222 15.199-4.801 0.865-1.6h-13.105v-1.6h13.969l2.602-4.801z"></path>
</symbol>
<symbol id="icon-mail-line" viewBox="0 0 80 32">
<title>mail-line</title>
<path d="M80.096 31.986h-51.7v-31.972h51.7v31.972zM30.81 2.256v27.316l46.872-0.014v-27.31l-23.44 21.963-23.432-21.955zM34.419 2.438l19.832 18.572 19.813-18.572h-39.644zM25.139 29.034h-14.503v-1.672h14.503v1.672zM25.139 25.232h-8.703v-0.992h8.703v0.992zM25.139 18.256h-19.687v-0.822h19.687v0.822zM25.139 11.883h-25.125v-1.502h25.125v1.502zM25.139 5.693h-11.869v-0.822h11.869v0.822z"></path>
<path d="M80.082 31.972v-31.944h-51.672v31.944h51.672zM30.796 2.224l23.446 21.968 23.454-21.976v27.37l-46.9-0.028v-27.334zM34.384 2.424h39.715l-19.857 18.614-19.857-18.614zM25.125 29.020v-1.644h-14.475v1.644h14.475zM25.125 25.218v-0.964h-8.676v0.964h8.676zM25.125 18.242v-0.794h-19.659v0.794h19.659zM25.125 11.869v-1.474h-25.097v1.474h25.097zM25.125 5.679v-0.794h-11.841v0.794h11.841zM80.109 32l-51.728-0v-32h51.728v32zM30.824 2.288v27.27h46.844v-27.278l-23.426 21.95-23.418-21.942zM34.455 2.452l19.787 18.548 19.787-18.548h-39.574zM25.153 29.048h-14.531v-1.7h14.531v1.7zM25.153 25.246h-8.731v-1.020h8.731v1.020zM25.153 18.27h-19.714v-0.85h19.714v0.85zM25.153 11.897h-25.153v-1.53h25.153v1.53zM25.153 5.707h-11.897v-0.85h11.897v0.85z"></path>
</symbol>
<symbol id="icon-mail" viewBox="0 0 50 32">
<title>mail</title>
<path d="M0 32v-28.973l24.803 19.198 24.8-19.198v28.973zM0 0h49.601l-24.8 19.198z"></path>
</symbol>
<symbol id="icon-signature" viewBox="0 0 48 32">
<title>signature</title>
<path d="M32.947 8.786s2.166-1.919 6.69-1.292 5.331 3.702 5.331 3.702l3.034-1.684s-1.128-2.861-4.397-4.116-6.607 0.407-6.607 0.407-2.996 1.34-3.819 2.026 0.561-1.906-2.371-4.919-9.028-2.909-9.028-2.909-4.106 0.1-8.081 1.618-7.579 3.642-9.014 5.128-4.041 3.809-4.606 8.81 2.001 8.255 4.606 10.387 9.301 4.876 13.604 5.434c3.146 0.591 6.968 0.656 7.489 0.611s3.133-2.334 3.133-2.334-5.661-0.192-7.946-0.54-4.588-0.456-9.135-2.628-9.627-4.68-9.785-10.472 4.563-9.614 7.642-11.168c4.892-2.469 10.016-2.706 13.376-2.226s5.34 1.507 6.701 3.566c2.157 3.264-0.442 5.194-0.442 5.194l0.255 0.581s1.831-0.635 2.72-1.614 0.65-1.562 0.65-1.562z"></path>
</symbol>
</defs>
</svg>
