<svg xmlns="http://www.w3.org/2000/svg" width="22.041" height="21.243" viewBox="0 0 22.041 21.243">
  <path id="cart-icon" d="M-17317.131-4049.88a2.126,2.126,0,0,1,2.125-2.125,2.126,2.126,0,0,1,2.125,2.125,2.126,2.126,0,0,1-2.125,2.125A2.126,2.126,0,0,1-17317.131-4049.88Zm-10.621,0a2.126,2.126,0,0,1,2.125-2.125,2.126,2.126,0,0,1,2.125,2.125,2.126,2.126,0,0,1-2.125,2.125A2.126,2.126,0,0,1-17327.752-4049.88Zm1.037-4.249-1.924-7.743-1.244-5h-1.207a.909.909,0,0,1-.91-.909v-.62a.594.594,0,0,1,.594-.595h2.879l1.057,4.249h17.512l-3.984,10.622Zm-.471-9.56.734,3.04,1.355,5.458,10.09-3.187.574-1.062h-8.7v-1.062h9.273l1.727-3.187Z" transform="translate(17332 4068.999)" fill="#fff"/>
</svg>
