<svg xmlns="http://www.w3.org/2000/svg" width="2876.555" height="1149.05" viewBox="0 0 2876.555 1149.05">
  <g id="mail-line-icon" transform="translate(12303.999 -541)" fill="#fff">
    <path d="M -9427.9443359375 1689.548950195313 L -11284.373046875 1689.548950195313 L -11284.373046875 541.4996337890625 L -9427.9443359375 541.4996337890625 L -9427.9443359375 1689.548950195313 Z M -11197.6884765625 621.9964599609375 L -11197.6884765625 623.1500244140625 L -11197.6884765625 1602.364990234375 L -11197.6884765625 1602.864990234375 L -11197.1884765625 1602.864990234375 L -9515.125 1602.864990234375 L -9514.625 1602.864990234375 L -9514.625 1602.364990234375 L -9514.625 622.8689575195313 L -9514.625 621.7153930664063 L -9515.466796875 622.50390625 L -10356.3056640625 1410.362915039063 L -11196.8466796875 622.7850341796875 L -11197.6884765625 621.9964599609375 Z M -11068.0703125 628.5478515625 L -11067.1474609375 629.4125366210938 L -10356.6474609375 1295.416137695313 L -10356.3056640625 1295.73681640625 L -10355.9638671875 1295.416137695313 L -9645.4599609375 629.4125366210938 L -9644.537109375 628.5478515625 L -9645.8017578125 628.5478515625 L -11066.8056640625 628.5478515625 L -11068.0703125 628.5478515625 Z M -11401.3203125 1583.560302734375 L -11922.087890625 1583.560302734375 L -11922.087890625 1523.531127929688 L -11401.3203125 1523.531127929688 L -11401.3203125 1583.560302734375 Z M -11401.3203125 1447.038208007813 L -11713.84375 1447.038208007813 L -11713.84375 1411.427856445313 L -11401.3203125 1411.427856445313 L -11401.3203125 1447.038208007813 Z M -11401.3173828125 1196.523193359375 L -12108.2177734375 1196.523193359375 L -12108.2177734375 1167.011474609375 L -11401.3173828125 1167.011474609375 L -11401.3173828125 1196.523193359375 Z M -11401.3203125 967.6793212890625 L -12303.4990234375 967.6793212890625 L -12303.4990234375 913.754638671875 L -11401.3203125 913.754638671875 L -11401.3203125 967.6793212890625 Z M -11401.3203125 745.4153442382813 L -11827.5 745.4153442382813 L -11827.5 715.9006958007813 L -11401.3203125 715.9006958007813 L -11401.3203125 745.4153442382813 Z" stroke="none"/>
    <path d="M -9428.4443359375 1689.048950195313 L -9428.4443359375 541.9996337890625 L -11283.873046875 541.9996337890625 L -11283.873046875 1689.048950195313 L -9428.4443359375 1689.048950195313 M -11198.1884765625 620.842529296875 L -11196.5048828125 622.4203491210938 L -10356.3056640625 1409.678100585938 L -9515.80859375 622.1392822265625 L -9514.125 620.5614624023438 L -9514.125 622.8689575195313 L -9514.125 1602.364990234375 L -9514.125 1603.364990234375 L -9515.125 1603.364990234375 L -11197.1884765625 1603.364990234375 L -11198.1884765625 1603.364990234375 L -11198.1884765625 1602.364990234375 L -11198.1884765625 623.1500244140625 L -11198.1884765625 620.842529296875 M -11069.3349609375 628.0478515625 L -11066.8056640625 628.0478515625 L -9645.8017578125 628.0478515625 L -9643.2724609375 628.0478515625 L -9645.1181640625 629.7775268554688 L -10355.6220703125 1295.781127929688 L -10356.3056640625 1296.422119140625 L -10356.9892578125 1295.781127929688 L -11067.4892578125 629.7775268554688 L -11069.3349609375 628.0478515625 M -11401.8203125 1583.060302734375 L -11401.8203125 1524.031127929688 L -11921.587890625 1524.031127929688 L -11921.587890625 1583.060302734375 L -11401.8203125 1583.060302734375 M -11401.8203125 1446.538208007813 L -11401.8203125 1411.927856445313 L -11713.34375 1411.927856445313 L -11713.34375 1446.538208007813 L -11401.8203125 1446.538208007813 M -11401.8173828125 1196.023193359375 L -11401.8173828125 1167.511474609375 L -12107.7177734375 1167.511474609375 L -12107.7177734375 1196.023193359375 L -11401.8173828125 1196.023193359375 M -11401.8203125 967.1793212890625 L -11401.8203125 914.254638671875 L -12302.9990234375 914.254638671875 L -12302.9990234375 967.1793212890625 L -11401.8203125 967.1793212890625 M -11401.8203125 744.9153442382813 L -11401.8203125 716.4006958007813 L -11827 716.4006958007813 L -11827 744.9153442382813 L -11401.8203125 744.9153442382813 M -9427.4443359375 1690.048950195313 L -11284.873046875 1690.048950195313 L -11284.873046875 1690.046020507813 L -11284.873046875 540.9996337890625 L -9427.4443359375 540.9996337890625 L -9427.4443359375 1690.046020507813 L -9427.4443359375 1690.048950195313 Z M -11197.1884765625 623.1500244140625 L -11197.1884765625 1602.364990234375 L -9515.125 1602.364990234375 L -9515.125 622.8689575195313 L -10356.3056640625 1411.048217773438 L -11197.1884765625 623.1500244140625 Z M -11066.8056640625 629.0478515625 L -10356.3056640625 1295.051391601563 L -9645.8017578125 629.0478515625 L -11066.8056640625 629.0478515625 Z M -11400.8203125 1584.060302734375 L -11922.587890625 1584.060302734375 L -11922.587890625 1523.031127929688 L -11400.8203125 1523.031127929688 L -11400.8203125 1584.060302734375 Z M -11400.8203125 1447.538208007813 L -11714.34375 1447.538208007813 L -11714.34375 1410.927856445313 L -11400.8203125 1410.927856445313 L -11400.8203125 1447.538208007813 Z M -11400.8173828125 1197.023193359375 L -12108.7177734375 1197.023193359375 L -12108.7177734375 1166.511474609375 L -11400.8173828125 1166.511474609375 L -11400.8173828125 1197.023193359375 Z M -11400.8203125 968.1793212890625 L -12303.9990234375 968.1793212890625 L -12303.9990234375 913.254638671875 L -11400.8203125 913.254638671875 L -11400.8203125 968.1793212890625 Z M -11400.8203125 745.9153442382813 L -11828 745.9153442382813 L -11828 715.4006958007813 L -11400.8203125 715.4006958007813 L -11400.8203125 745.9153442382813 Z" stroke="none" fill="#fff"/>
  </g>
</svg>
